<svg xmlns="http://www.w3.org/2000/svg" width="32" height="40" fill="none"><path d="M16 40l-.42-.198c-4.635-2.182-8.555-5.792-11.335-10.44C1.468 24.723 0 19.338 0 13.792V7.426L16 0l16 7.426v6.365c0 5.546-1.468 10.93-4.245 15.572-2.78 4.647-6.7 8.257-11.335 10.44L16 40zM2.133 8.98v4.81c0 10.238 5.428 19.467 13.867 23.655 8.44-4.188 13.866-13.417 13.866-23.654V8.98L16 2.544 2.133 8.98z" fill="#F0B310"></path><path d="M15.929 27.898c-5.294 0-9.6-4.732-9.6-10.548 0-5.815 4.306-10.546 9.6-10.546 5.293 0 9.6 4.73 9.6 10.546 0 5.816-4.307 10.548-9.6 10.548zm0-18.75c-4.117 0-7.467 3.68-7.467 8.202 0 4.524 3.35 8.203 7.467 8.203 4.117 0 7.466-3.68 7.466-8.203s-3.349-8.203-7.466-8.203z" fill="#F0B310"></path><path d="M14.863 22.524l-3.955-4.345 1.509-1.657 2.446 2.687 4.579-5.03 1.508 1.656-6.087 6.689z" fill="#F0B310"></path></svg>