<svg xmlns="http://www.w3.org/2000/svg" width="50" height="46" fill="none"><path d="M48.364 42.099h-3.336V21.78c2.738-.424 4.823-2.477 4.823-4.944a4.406 4.406 0 00-.642-2.268L45.95 4.342c-.164-2.39-2.39-4.224-5.198-4.224a5.591 5.591 0 00-3.785 1.395 5.814 5.814 0 00-7.596.033A5.577 5.577 0 0025.554.118a5.691 5.691 0 00-3.674 1.277A5.646 5.646 0 0018.22.118a5.526 5.526 0 00-3.922 1.541A5.532 5.532 0 0010.373.118c-2.8 0-5.018 1.82-5.197 4.196l-3.538 10.03a4.473 4.473 0 00-.782 2.493c0 2.466 2.084 4.519 4.82 4.942V42.1H2.344a1.523 1.523 0 00-1.487 1.559 1.523 1.523 0 001.487 1.56h46.02a1.56 1.56 0 000-3.12zM33.183 3.237c1.28 0 2.24.734 2.24 1.39 0 .102.01.205.029.306l2.16 11.291c.014.08.035.157.061.232.05.123.078.252.086.384 0 .902-1.188 1.909-2.892 1.909-1.705 0-2.893-1.007-2.893-1.909 0-.045-.002-.091-.005-.137L30.952 4.582c.042-.646.983-1.345 2.23-1.345zM23.16 7.47l.258-2.688c.005-.053.008-.105.008-.157 0-.108-.027-.208-.035-.314a2.345 2.345 0 012.159-1.075c1.28 0 2.24.735 2.24 1.39v.09l.653 12.122c0 .903-1.187 1.909-2.892 1.909-1.704 0-2.892-1.006-2.894-1.822l.503-9.455zM3.824 16.837c.014-.289.12-.566.303-.79.095-.127.17-.267.222-.416L8.04 5.168c.06-.173.09-.355.09-.538 0-.655.956-1.39 2.235-1.39 1.28 0 2.24.735 2.24 1.39a.807.807 0 01-.095.353 1.589 1.589 0 00-.121.33L9.656 16.446a1.626 1.626 0 00-.047.389c0 .902-1.187 1.909-2.893 1.909-1.705 0-2.892-1.003-2.892-1.906zM17.254 42.1H8.647V21.577a5.857 5.857 0 002.905-1.903 6.183 6.183 0 004.84 2.189 6.91 6.91 0 00.864-.06V42.1zm2.034-25.418a1.548 1.548 0 00-.007.156c0 .903-1.188 1.91-2.893 1.91-1.704 0-2.892-1.007-2.892-1.91.009-.141.041-.28.096-.41.03-.08.054-.162.071-.246l2.284-11.23c.021-.106.033-.215.033-.325 0-.655.956-1.39 2.236-1.39a2.37 2.37 0 012.15 1.06c-.005.082-.028.16-.028.244l-.14 2.62-.91 9.52zM42.05 42.099H20.23V20.628c.265-.197.512-.417.738-.659a6.261 6.261 0 004.582 1.896 6.184 6.184 0 004.649-1.99 6.478 6.478 0 009.21.136 5.842 5.842 0 002.644 1.579l-.003 20.509zm-.958-25.262c0-.113-.011-.226-.035-.337L38.66 5.16a1.66 1.66 0 00-.077-.256.827.827 0 01-.072-.278c0-.655.957-1.39 2.24-1.39 1.285 0 2.241.735 2.241 1.39 0 .168.026.335.076.495l3.388 10.626c.044.136.106.266.184.387.148.206.233.45.245.703 0 .903-1.188 1.91-2.893 1.91-1.704 0-2.9-1.007-2.9-1.91z" fill="#F0B310"></path><path d="M36.987 25.424a1.441 1.441 0 00-2.103 0L26.98 33.71a1.613 1.613 0 000 2.205 1.44 1.44 0 002.103 0l7.903-8.285a1.613 1.613 0 000-2.206zM36.53 31.812l-5.598 5.868a1.613 1.613 0 000 2.204 1.439 1.439 0 002.104 0l5.596-5.867a1.613 1.613 0 000-2.205 1.439 1.439 0 00-2.103 0zM13.86 34.812c1.09 0 1.975-.927 1.975-2.07 0-1.144-.884-2.072-1.976-2.072-1.091 0-1.976.928-1.976 2.071 0 1.144.885 2.071 1.976 2.071z" fill="#F0B310"></path></svg>