<svg xmlns="http://www.w3.org/2000/svg" width="34" height="34" fill="none"><path d="M31.722 25.64l-6.461-6.46a.538.538 0 00-.76 0l-.38.38-1.141-1.14a.538.538 0 00-.76 0l-.762.762-1.075-1.075 5.372-5.373 2.569.205a.546.546 0 00.422-.156l4.025-4.025a.538.538 0 00.148-.48l-.604-3.196a.538.538 0 00-.908-.28l-3.401 3.401-2.115-.165-.165-2.115 3.4-3.401a.538.538 0 00-.28-.908l-3.196-.605a.537.537 0 00-.48.148l-4.025 4.025a.538.538 0 00-.156.423l.205 2.57-5.375 5.37L9.206 6.93V4.867a.537.537 0 00-.27-.466l-5.32-3.04a.537.537 0 00-.645.086l-1.524 1.52a.537.537 0 00-.087.645l3.041 5.321c.096.167.274.27.466.269H6.93l6.616 6.62-5.372 5.375-2.57-.205a.546.546 0 00-.421.156L1.157 25.17a.538.538 0 00-.148.48l.605 3.197a.537.537 0 00.908.28l3.401-3.401 2.115.165.166 2.116-3.401 3.4a.537.537 0 00.28.908l3.195.605a.538.538 0 00.48-.148l4.026-4.025a.538.538 0 00.155-.423l-.204-2.57 5.372-5.37 1.075 1.074-.762.762c-.21.21-.21.55 0 .76l1.14 1.14-.38.38c-.21.21-.21.551 0 .76l6.461 6.462a4.3 4.3 0 106.08-6.081zM6.924 8.13H5.18L2.497 3.438l.94-.94L8.131 5.18v1.746L6.924 8.13zm.986.538l.756-.756 6.396 6.397-.756.753L7.91 8.668zm3.938 19.497l-3.649 3.648-1.917-.363 2.856-2.86a.539.539 0 00.156-.421l-.22-2.82a.538.538 0 00-.494-.494l-2.82-.22a.534.534 0 00-.422.156l-2.857 2.857-.363-1.918 3.649-3.65 2.569.205a.538.538 0 00.422-.156L22.13 8.76a.538.538 0 00.156-.423l-.204-2.57 3.648-3.648 1.918.363-2.857 2.857a.537.537 0 00-.155.422l.22 2.82c.02.264.23.473.494.494l2.82.22a.538.538 0 00.421-.155l2.858-2.857.362 1.918-3.648 3.648-2.57-.204a.535.535 0 00-.422.156L11.8 25.17a.537.537 0 00-.156.423l.204 2.572zm7.02-8.542l.755-.756 1.075 1.075-.756.756-1.075-1.075zm1.45 3.737l-.76-.76 3.04-3.04.763.76-3.043 3.04zm10.643 7.602a3.225 3.225 0 01-4.561 0l-6.08-6.081 4.56-4.56 6.082 6.08a3.23 3.23 0 010 4.561h-.001z" fill="#F0B310" stroke="#F0B310"></path><path d="M28.3 30.36a.535.535 0 01-.38-.158l-4.784-4.784a.537.537 0 01.76-.76l4.784 4.784a.537.537 0 01-.38.918h0zM29.82 28.84a.538.538 0 01-.38-.158l-4.784-4.784a.537.537 0 11.76-.76l4.784 4.784a.538.538 0 01-.38.917h0z" fill="#F0B310" stroke="#F0B310"></path></svg>