<svg xmlns="http://www.w3.org/2000/svg" width="49" height="48" fill="none"><path d="M47.804 23.426A4.561 4.561 0 0045.102 21c-2.281-.948-3.71.96-4.857 2.492a9.824 9.824 0 01-3.953 3.585c-1.276-1.782-4.175-1.758-7.488-1.719-.485.006-.986.01-1.486.01l-1.086.005a5.751 5.751 0 01-2.688-.406c-.755-.24-1.896-.6-3.787-1.138-6.173-1.753-11.759 4.785-13.414 6.96a2.803 2.803 0 00-2.081.818l-2.819 2.818a2.828 2.828 0 000 3.995l8.38 8.38a2.81 2.81 0 001.997.825 2.818 2.818 0 001.997-.826l2.818-2.817a2.804 2.804 0 00.828-1.999 2.795 2.795 0 00-.622-1.748 4.854 4.854 0 013.053-1.255c2.81.115 13.255.006 13.748 0 .33-.016 3.36-.293 8.31-5.108 4.529-4.404 5.69-7.638 5.88-8.26a3.06 3.06 0 00-.028-2.186zM14.737 42.08L11.919 44.9a.138.138 0 01-.194 0l-8.38-8.38a.138.138 0 010-.193l2.82-2.818a.134.134 0 01.096-.04.136.136 0 01.096.04l8.38 8.38a.153.153 0 010 .19v.002zM45.344 24.6l-.078.214c-.009.029-.856 2.915-5.187 7.127-4.164 4.05-6.564 4.348-6.514 4.348-.134 0-10.82.114-13.56 0a7.438 7.438 0 00-5.052 2.011L8.74 32.09c1.631-2.053 6.015-6.889 10.283-5.676 1.853.525 2.965.878 3.709 1.114a7.863 7.863 0 003.519.532l1.065-.004c.514 0 1.021-.006 1.517-.011 2.116-.024 5.012-.056 5.33.686a1.642 1.642 0 01-.037 1.508 1.11 1.11 0 01-.972.488c-2.03.056-9.278.142-9.351.143a1.344 1.344 0 00.016 2.689h.017c.298 0 7.343-.09 9.393-.144a3.806 3.806 0 003.164-1.727c.378-.601.59-1.292.615-2.002a11.96 11.96 0 005.388-4.584c.933-1.247 1.374-1.748 1.674-1.62.99.41 1.34.887 1.27 1.115l.003.003z" fill="#F0B310"></path><path d="M10.368 39.045a1.344 1.344 0 00-1.9 1.9l1.375 1.376a1.342 1.342 0 002.294-.95c0-.357-.141-.698-.393-.95l-1.376-1.376zM27.392 12.664h-.359a.733.733 0 00-.733.733 2.76 2.76 0 00.538 1.753c.37.454.892.759 1.47.859a.11.11 0 01.09.107v.168a.858.858 0 00.858.858.725.725 0 00.726-.726v-.3a.111.111 0 01.09-.107 2.42 2.42 0 001.47-.867 2.82 2.82 0 00.537-1.777c.01-.6-.154-1.19-.475-1.697a6.518 6.518 0 00-1.656-1.602 5.957 5.957 0 01-1.303-1.171 1.77 1.77 0 01-.352-1.06.85.85 0 01.969-.956.857.857 0 01.965.945v.032a.776.776 0 00.776.776h.269a.774.774 0 00.774-.768l.008.006c0-.029-.005-.053-.007-.08v-.006-.039a2.66 2.66 0 00-.51-1.511 2.409 2.409 0 00-1.46-.85.111.111 0 01-.09-.108V5.17a.779.779 0 00-.778-.778h-.058a.75.75 0 00-.75.749v.135a.11.11 0 01-.089.107 2.44 2.44 0 00-1.434.858 2.697 2.697 0 00-.52 1.702 2.98 2.98 0 00.475 1.657 6.388 6.388 0 001.657 1.578c.494.319.934.714 1.302 1.172.282.4.402.892.338 1.378a.837.837 0 01-.746.737c-.832.082-1.248-.238-1.248-.96v-.103a.743.743 0 00-.744-.739z" fill="#F0B310"></path><path d="M29.585 21.433a10.728 10.728 0 0010.717-10.716A10.73 10.73 0 0029.585 0a10.728 10.728 0 00-10.716 10.717 10.727 10.727 0 0010.716 10.716zm0-18.745a8.037 8.037 0 018.028 8.029 8.037 8.037 0 01-8.028 8.028 8.036 8.036 0 01-8.028-8.028 8.036 8.036 0 018.028-8.029z" fill="#F0B310"></path></svg>